<?xml version="1.0" encoding="utf-8"?>
<!-- Generator: Adobe Illustrator 23.0.0, SVG Export Plug-In . SVG Version: 6.00 Build 0)  -->
<svg version="1.1" id="svg2" xmlns:svg="http://www.w3.org/2000/svg"
	 xmlns="http://www.w3.org/2000/svg" xmlns:xlink="http://www.w3.org/1999/xlink" x="0px" y="0px" viewBox="0 0 600 600"
	 style="enable-background:new 0 0 600 600;" xml:space="preserve">
<style type="text/css">
	.st0{fill:#FF9696;}
</style>
<path id="X" class="st0" d="M3.2,500.6c0-9.4,40.5-56.3,90.1-104.4s97.3-94.7,106.1-103.7c8.8-9-0.3-61.1-20.3-115.7
	C137.6,63.6,133.8,25.9,162.4,11.2c39.1-20.1,92.7,9.6,137.8,76.2l45.6,67.5L431.5,85c56.3-46,96.5-66.5,117.4-59.8
	C590.2,38.4,614,90,582.8,98.6c-35.4,9.8-182,195.4-181.8,230c0.1,16.4,21,60,46.3,96.8c17.9,26,41.9,46.5,32.3,60.6l-51,75.3
	c-9.9,14.6-46.4-24.3-89.6-62.1l-75.4-66L180,515.7c-46,45.4-88.9,82.3-95.4,82S3.2,510,3.2,500.6z"/>
</svg>
